<svg xmlns="http://www.w3.org/2000/svg" xmlns:xlink="http://www.w3.org/1999/xlink" viewBox="0 0 66 83.75" version="1.1" x="0px" y="0px"><title>blockchain, vault, crypto, currency, layers, security</title><desc>Created with Sketch.</desc><g stroke="none" stroke-width="1" fill="none" fill-rule="evenodd"><g transform="translate(-537.000000, -656.000000)" fill="#000000" fill-rule="nonzero"><path d="M587.43681,664.365046 C586.980442,664.054005 586.862631,663.431897 587.173673,662.975529 C587.484714,662.519161 588.106822,662.401351 588.56319,662.712392 C590.024249,663.708189 591.403655,664.819951 592.687622,666.035928 C593.088619,666.415691 593.105832,667.048622 592.726069,667.449619 C592.346306,667.850616 591.713375,667.867829 591.312378,667.488066 C590.105813,666.345392 588.809617,665.300695 587.43681,664.365046 Z M569,659.5 C568.171573,659.5 567.5,658.828427 567.5,658 C567.5,657.171573 568.171573,656.5 569,656.5 C569.828427,656.5 570.5,657.171573 570.5,658 C570.5,658.828427 569.828427,659.5 569,659.5 Z M596.853364,674.500726 C596.576821,674.022665 596.740183,673.410937 597.218244,673.134394 C597.696305,672.857851 598.308032,673.021213 598.584576,673.499274 C600.076805,676.078893 601.214158,678.851787 601.960297,681.750742 C602.097959,682.285595 601.775972,682.830775 601.241119,682.968437 C600.706266,683.106099 600.161085,682.784111 600.023423,682.249258 C599.32282,679.527223 598.254835,676.923452 596.853364,674.500726 Z M577.750742,659.976577 C577.215889,659.838915 576.893901,659.293734 577.031563,658.758881 C577.169225,658.224028 577.714405,657.902041 578.249258,658.039703 C578.944096,658.218542 579.632058,658.419946 580.312249,658.643514 C580.83692,658.815965 581.122451,659.381093 580.95,659.905764 C580.77755,660.430434 580.212421,660.715965 579.687751,660.543514 C579.049101,660.333601 578.403154,660.144496 577.750742,659.976577 Z M601,690 C601,689.447715 601.447715,689 602,689 C602.552285,689 603,689.447715 603,690 C603,708.225397 588.225397,723 570,723 C551.774603,723 537,708.225397 537,690 C537,675.638528 546.257526,663.057807 559.687751,658.643514 C560.212421,658.471063 560.77755,658.756594 560.95,659.281265 C561.122451,659.805935 560.83692,660.371064 560.312249,660.543514 C547.696891,664.689974 539,676.508808 539,690 C539,707.120827 552.879173,721 570,721 C587.120827,721 601,707.120827 601,690 Z M550,691 C550,691.552285 549.552285,692 549,692 C548.447715,692 548,691.552285 548,691 L548,690 C548,677.849736 557.849736,668 570,668 C582.150264,668 592,677.849736 592,690 C592,702.150264 582.150264,712 570,712 L569,712 C568.447715,712 568,711.552285 568,711 C568,710.447715 568.447715,710 569,710 L570,710 C581.045695,710 590,701.045695 590,690 C590,678.954305 581.045695,670 570,670 C558.954305,670 550,678.954305 550,690 L550,691 Z M549.653063,698.381207 C549.442528,697.870625 549.685764,697.286045 550.196346,697.07551 C550.706928,696.864976 551.291508,697.108212 551.502042,697.618793 C552.104892,699.080804 552.87994,700.464979 553.808983,701.743544 C554.133634,702.190333 554.034621,702.815709 553.587831,703.140359 C553.141042,703.465009 552.515667,703.365996 552.191017,702.919207 C551.169153,701.512902 550.316463,699.990065 549.653063,698.381207 Z M557.080793,707.808983 C556.634004,707.484333 556.534991,706.858958 556.859641,706.412169 C557.184291,705.965379 557.809667,705.866366 558.256456,706.191017 C559.535021,707.12006 560.919196,707.895108 562.381207,708.497958 C562.891788,708.708492 563.135024,709.293072 562.92449,709.803654 C562.713955,710.314236 562.129375,710.557472 561.618793,710.346937 C560.009935,709.683537 558.487098,708.830847 557.080793,707.808983 Z M570.707107,698.707107 C570.316582,699.097631 569.683418,699.097631 569.292893,698.707107 L561.292893,690.707107 C560.902369,690.316582 560.902369,689.683418 561.292893,689.292893 L569.292893,681.292893 C569.683418,680.902369 570.316582,680.902369 570.707107,681.292893 L578.707107,689.292893 C579.097631,689.683418 579.097631,690.316582 578.707107,690.707107 L570.707107,698.707107 Z M576.585786,690 L570,683.414214 L563.414214,690 L570,696.585786 L576.585786,690 Z"/></g></g><text x="0" y="82" fill="#000000" font-size="5px" font-weight="bold" font-family="'Helvetica Neue', Helvetica, Arial-Unicode, Arial, Sans-serif">Created by Andrejs Kirma</text><text x="0" y="87" fill="#000000" font-size="5px" font-weight="bold" font-family="'Helvetica Neue', Helvetica, Arial-Unicode, Arial, Sans-serif">from the Noun Project</text></svg>